<svg width="1880" height="504" viewBox="0 0 1880 504" fill="none" xmlns="http://www.w3.org/2000/svg">
<path d="M0 497.293V6.70721H96.8158V411.776H293.131V497.293H0Z" fill="#FF0000"/>
<path d="M221.63 6.70721H330.073L434.491 217.985H438.962L543.38 6.70721H651.823L484.799 323.863V497.293H388.654V323.863L221.63 6.70721Z" fill="#FF0000"/>
<path d="M1037.35 6.70721V497.293H953.723L754.502 188.521H751.148V497.293H654.332V6.70721H739.297L936.953 315.24H940.978V6.70721H1037.35Z" fill="#FF0000"/>
<path d="M1471 178.46H1373.07C1371.28 164.886 1367.62 152.829 1362.11 142.289C1356.59 131.589 1349.51 122.487 1340.87 114.981C1332.22 107.475 1322.24 101.726 1310.91 97.7338C1299.73 93.7414 1287.58 91.7453 1274.46 91.7453C1250.76 91.7453 1230.11 98.0532 1212.53 110.669C1194.94 123.125 1181.3 141.331 1171.61 165.285C1161.92 189.08 1157.07 217.985 1157.07 252C1157.07 286.973 1161.92 316.357 1171.61 340.152C1181.45 363.947 1195.16 381.913 1212.75 394.049C1230.34 406.186 1250.69 412.255 1273.79 412.255C1286.76 412.255 1298.76 410.418 1309.79 406.745C1320.97 403.072 1330.88 397.722 1339.53 390.696C1348.17 383.51 1355.33 374.806 1360.99 364.586C1366.8 354.365 1370.83 342.707 1373.07 329.612L1471 330.091C1468.46 352.608 1462.13 374.327 1451.99 395.247C1442.01 416.008 1428.52 434.612 1411.52 451.061C1394.68 467.35 1374.56 480.285 1351.15 489.867C1327.9 499.289 1301.59 504 1272.22 504C1231.38 504 1194.86 494.099 1162.66 474.297C1130.62 454.494 1105.28 425.829 1086.64 388.3C1068.16 350.772 1058.92 305.338 1058.92 252C1058.92 198.502 1068.31 152.989 1087.09 115.46C1105.87 77.9315 1131.36 49.346 1163.56 29.7034C1195.76 9.90115 1231.98 0 1272.22 0C1298.76 0 1323.35 3.99234 1346.01 11.9771C1368.82 19.9619 1389.01 31.6197 1406.6 46.9505C1424.19 62.1216 1438.5 80.7263 1449.53 102.764C1460.71 124.802 1467.87 150.034 1471 178.46Z" fill="#FF0000"/>
<path d="M1490.05 497.293V6.70721H1586.87V209.122H1783.41V6.70721H1880V497.293H1783.41V294.639H1586.87V497.293H1490.05Z" fill="#FF0000"/>
</svg>

