<?xml version="1.0" standalone="no"?>
<!DOCTYPE svg PUBLIC "-//W3C//DTD SVG 20010904//EN"
 "http://www.w3.org/TR/2001/REC-SVG-20010904/DTD/svg10.dtd">
<svg version="1.0" xmlns="http://www.w3.org/2000/svg"
 width="500.000000pt" height="500.000000pt" viewBox="0 0 500.000000 500.000000"
 preserveAspectRatio="xMidYMid meet">
<metadata>
Created by potrace 1.14, written by Peter Selinger 2001-2017
</metadata>
<g transform="translate(0.000000,500.000000) scale(0.100000,-0.100000)"
fill="#000000" stroke="none">
<path d="M2455 3950 c-89 -13 -184 -82 -228 -165 -18 -32 -22 -57 -22 -130 0
-104 20 -156 82 -218 61 -61 115 -82 213 -82 98 0 152 21 213 82 114 113 116
309 5 421 -70 72 -169 106 -263 92z"/>
<path d="M1384 3351 c-122 -58 -179 -145 -179 -276 0 -67 5 -88 27 -131 58
-110 153 -168 273 -168 171 1 300 129 298 299 0 93 -30 161 -95 220 -97 87
-215 107 -324 56z"/>
<path d="M3393 3359 c-71 -27 -145 -96 -173 -161 -31 -72 -32 -174 -3 -240 71
-156 251 -227 403 -157 114 53 175 151 175 279 -1 126 -59 214 -179 271 -74
35 -146 38 -223 8z"/>
<path d="M1437 2220 c-92 -23 -173 -88 -211 -170 -29 -63 -29 -187 0 -251 87
-188 347 -234 492 -86 118 121 116 316 -5 428 -24 22 -64 49 -87 60 -52 23
-138 31 -189 19z"/>
<path d="M3420 2217 c-138 -39 -224 -152 -224 -292 0 -171 128 -299 299 -300
120 0 223 64 276 171 32 66 34 187 3 254 -60 128 -222 204 -354 167z"/>
<path d="M2396 1635 c-82 -31 -146 -94 -177 -175 -27 -70 -23 -184 8 -245 28
-54 86 -110 142 -137 66 -33 196 -33 262 0 105 51 169 155 169 272 0 117 -65
221 -169 272 -58 28 -177 35 -235 13z"/>
</g>
</svg>
