<svg width="1880" height="548" viewBox="0 0 1880 548" fill="none" xmlns="http://www.w3.org/2000/svg">
<path d="M181.823 548H0V0H183.326C234.918 0 279.33 10.9707 316.563 32.9121C353.796 54.6751 382.43 85.9818 402.466 126.832C422.668 167.682 432.769 216.56 432.769 273.465C432.769 330.548 422.668 379.604 402.466 420.633C382.43 461.661 353.629 493.146 316.062 515.088C278.662 537.029 233.916 548 181.823 548ZM108.443 448.729H177.315C209.372 448.729 236.337 442.663 258.209 430.533C280.248 418.225 296.778 399.227 307.797 373.539C318.984 347.673 324.577 314.315 324.577 273.465C324.577 232.971 318.984 199.881 307.797 174.193C296.778 148.506 280.332 129.597 258.46 117.467C236.587 105.337 209.623 99.2715 177.566 99.2715H108.443V448.729Z" fill="#FF0000"/>
<path d="M516.16 548H399.954L577.018 0H716.767L893.581 548H777.375L648.896 125.227H644.889L516.16 548ZM508.897 332.6H783.385V423.041H508.897V332.6Z" fill="#FF0000"/>
<path d="M927.509 0L1051.48 416.352H1056.24L1180.46 0H1300.67L1123.86 548H984.11L807.045 0H927.509Z" fill="#FF0000"/>
<path d="M1414.43 0V548H1305.99V0H1414.43Z" fill="#FF0000"/>
<path d="M1629.05 548H1447.23V0H1630.56C1682.15 0 1726.56 10.9707 1763.79 32.9121C1801.03 54.6751 1829.66 85.9818 1849.7 126.832C1869.9 167.682 1880 216.56 1880 273.465C1880 330.548 1869.9 379.604 1849.7 420.633C1829.66 461.661 1800.86 493.146 1763.29 515.088C1725.89 537.029 1681.15 548 1629.05 548ZM1555.67 448.729H1624.55C1656.6 448.729 1683.57 442.663 1705.44 430.533C1727.48 418.225 1744.01 399.227 1755.03 373.539C1766.21 347.673 1771.81 314.315 1771.81 273.465C1771.81 232.971 1766.21 199.881 1755.03 174.193C1744.01 148.506 1727.56 129.597 1705.69 117.467C1683.82 105.337 1656.85 99.2715 1624.8 99.2715H1555.67V448.729Z" fill="#FF0000"/>
</svg>

