<svg width="128" height="128" viewBox="0 0 128 128" fill="none" xmlns="http://www.w3.org/2000/svg">
<path d="M24.1773 65.1981L6.75132 64.1999L6.96237 60.5156L21.3507 61.3398L21.7787 53.8691L24.8163 54.0431L24.1773 65.1981ZM8.63378 49.8665L10.1679 46.0282L18.6253 45.1223L18.6885 44.964L13.1856 38.4783L14.7197 34.64L22.835 44.7398L28.5647 47.0299L27.2045 50.4329L21.4748 48.1428L8.63378 49.8665ZM29.5121 18.3589L41.8955 30.6598L39.6491 32.9212L26.5035 30.5666L26.4134 30.6573L34.2074 38.3994L31.6067 41.0176L19.2233 28.7167L21.5057 26.419L34.6033 28.8099L34.7114 28.7011L26.9234 20.965L29.5121 18.3589ZM53.4159 13.885L49.9467 15.2632C49.7051 14.8396 49.4173 14.4923 49.0835 14.2214C48.7475 13.9452 48.3772 13.7439 47.9723 13.6174C47.5674 13.4909 47.1381 13.4414 46.6844 13.4688C46.2359 13.4941 45.7793 13.5991 45.3147 13.7837C44.4751 14.1172 43.8266 14.6164 43.3693 15.2811C42.9098 15.9405 42.6658 16.7344 42.6373 17.6628C42.6066 18.5859 42.8147 19.6098 43.2615 20.7346C43.721 21.891 44.2786 22.7944 44.9344 23.4448C45.5954 24.0931 46.3172 24.4941 47.0998 24.6479C47.8823 24.8017 48.6828 24.716 49.5012 24.3908C49.9606 24.2083 50.3616 23.9787 50.704 23.702C51.0518 23.4232 51.3327 23.1068 51.5467 22.7528C51.7585 22.3935 51.8976 22.0051 51.964 21.5874C52.0357 21.1676 52.0251 20.7255 51.9323 20.2611L55.4078 18.8987C55.6138 19.6789 55.6747 20.4861 55.5905 21.3205C55.5094 22.1475 55.2759 22.9525 54.89 23.7356C54.5073 24.5112 53.9644 25.2221 53.2613 25.8683C52.5613 26.5071 51.6912 27.0331 50.651 27.4464C49.2041 28.0212 47.7804 28.2078 46.3797 28.0062C44.9843 27.8024 43.7101 27.2112 42.557 26.2326C41.4093 25.2518 40.4851 23.8796 39.7844 22.116C39.0816 20.3471 38.8164 18.71 38.9888 17.2048C39.1611 15.6996 39.6885 14.3957 40.5711 13.293C41.4515 12.1851 42.6046 11.348 44.0303 10.7816C44.9702 10.4082 45.8939 10.194 46.8014 10.1392C47.7142 10.0822 48.5828 10.1835 49.4073 10.4428C50.2296 10.6969 50.9809 11.1107 51.6612 11.6841C52.3467 12.2555 52.9316 12.9891 53.4159 13.885ZM58.718 24.6397L59.3235 7.19566L63.0116 7.32369L62.7618 14.5211L70.2487 14.781L70.4986 7.58359L74.1782 7.71132L73.5726 25.1554L69.893 25.0276L70.1432 17.8217L62.6562 17.5618L62.4061 24.7677L58.718 24.6397ZM83.7837 10.0918L78.5052 26.7291L74.9876 25.6131L80.2661 8.97579L83.7837 10.0918ZM82.3631 29.2293L79.0539 27.0642L93.6523 15.757L97.632 18.3607L93.1109 36.2611L89.8017 34.096L93.5155 20.4339L93.4013 20.3592L82.3631 29.2293ZM85.9125 23.3528L93.729 28.4668L92.1519 30.8774L84.3353 25.7633L85.9125 23.3528ZM115.737 39.5883L101.16 49.188L99.4066 46.5259L104.405 34.1418L104.335 34.035L95.1599 40.077L93.1302 36.9949L107.708 27.3952L109.489 30.1L104.465 42.4296L104.549 42.5578L113.717 36.5205L115.737 39.5883ZM102.952 56.0191L120.372 54.9183L120.806 61.791C120.89 63.1122 120.709 64.2538 120.263 65.2156C119.822 66.1771 119.173 66.9298 118.313 67.4737C117.46 68.023 116.455 68.3341 115.298 68.4072C114.141 68.4803 113.105 68.2953 112.188 67.8522C111.272 67.4091 110.538 66.7297 109.984 65.8139C109.432 64.9037 109.113 63.7795 109.028 62.4413L108.752 58.0608L111.703 57.8743L111.942 61.6594C111.987 62.3682 112.146 62.9446 112.419 63.3885C112.698 63.8377 113.062 64.1619 113.513 64.3611C113.97 64.5657 114.485 64.6499 115.058 64.6137C115.636 64.5771 116.134 64.429 116.55 64.1693C116.972 63.9148 117.288 63.5476 117.497 63.0676C117.711 62.5872 117.796 61.9898 117.751 61.2753L117.594 58.7916L103.185 59.7021L102.952 56.0191ZM103.305 69.9558L120.023 74.9732L118.043 81.5689C117.664 82.8315 117.115 83.8412 116.396 84.5982C115.68 85.3622 114.841 85.8549 113.879 86.0762C112.92 86.3047 111.889 86.2532 110.784 85.9216C109.674 85.5884 108.791 85.0623 108.134 84.3434C107.484 83.626 107.082 82.7492 106.931 81.713C106.777 80.6822 106.893 79.5247 107.279 78.2404L108.604 73.8242L111.445 74.6768L110.291 78.5215C110.088 79.1963 110.013 79.7846 110.064 80.2864C110.115 80.7882 110.293 81.2035 110.598 81.5322C110.901 81.8664 111.327 82.116 111.877 82.2809C112.432 82.4475 112.933 82.4764 113.381 82.3676C113.827 82.2643 114.216 82.0161 114.548 81.6232C114.883 81.2374 115.153 80.7044 115.357 80.0242L116.072 77.6405L102.244 73.4904L103.305 69.9558ZM108.203 81.2674L99.3483 83.1391L100.519 79.2372L109.347 77.4553L108.203 81.2674ZM98.7483 83.3527L112.782 93.731L105.789 103.187L103.343 101.378L108.142 94.8891L104.798 92.4161L100.358 98.4189L97.9121 96.6098L102.351 90.607L99.0004 88.129L94.1811 94.6457L91.7348 92.8366L98.7483 83.3527ZM90.5765 93.629L100.801 107.775L97.8106 109.937L89.368 98.2567L83.3035 102.64L81.5211 100.174L90.5765 93.629ZM68.0146 112.641C67.4948 110.81 67.3997 109.154 67.7293 107.672C68.0534 106.192 68.7151 104.944 69.7143 103.928C70.7096 102.919 71.9478 102.205 73.4291 101.784C74.9213 101.361 76.3566 101.319 77.7351 101.66C79.1136 102.002 80.3295 102.717 81.3827 103.806C82.436 104.895 83.2218 106.352 83.74 108.178C84.2597 110.009 84.3575 111.664 84.0334 113.144C83.7093 114.624 83.0496 115.869 82.0543 116.877C81.0606 117.892 79.8176 118.611 78.3254 119.034C76.8442 119.455 75.4143 119.495 74.0358 119.153C72.6534 118.819 71.4356 118.108 70.3823 117.019C69.3235 115.931 68.5343 114.472 68.0146 112.641ZM71.6138 111.619C71.9505 112.805 72.4121 113.755 72.9985 114.469C73.5795 115.184 74.2495 115.661 75.0084 115.901C75.7674 116.14 76.576 116.138 77.4341 115.894C78.2923 115.651 78.9814 115.228 79.5014 114.625C80.0215 114.023 80.3436 113.264 80.4677 112.349C80.5863 111.435 80.4773 110.385 80.1407 109.199C79.804 108.013 79.3452 107.062 78.7642 106.347C78.1777 105.634 77.505 105.157 76.7461 104.918C75.9871 104.679 75.1785 104.681 74.3204 104.924C73.4622 105.168 72.7731 105.591 72.2531 106.193C71.733 106.796 71.4137 107.554 71.295 108.467C71.1709 109.383 71.2772 110.433 71.6138 111.619ZM62.4208 103.285L66.3407 103.808L58.0614 120.313L53.3474 119.685L49.6897 101.588L53.6096 102.111L56.1639 116.036L56.2991 116.054L62.4208 103.285ZM61.7592 110.119L52.5002 108.884L52.8809 106.029L62.1399 107.263L61.7592 110.119ZM44.0524 97.747L49.3553 100.935L40.3615 115.894L35.0148 112.68C33.5102 111.775 32.3949 110.697 31.6691 109.445C30.9404 108.198 30.6191 106.841 30.7052 105.375C30.7864 103.906 31.294 102.394 32.2279 100.841C33.1648 99.2826 34.2645 98.1206 35.5271 97.3549C36.7848 96.5862 38.1415 96.2318 39.5972 96.2915C41.0481 96.3484 42.5332 96.8335 44.0524 97.747ZM44.5633 101.744L42.5547 100.536C41.6197 99.9738 40.7338 99.6665 39.8968 99.6141C39.052 99.5636 38.2581 99.7924 37.5152 100.3C36.7644 100.81 36.0538 101.623 35.3834 102.738C34.7188 103.843 34.3388 104.845 34.2435 105.742C34.1433 106.636 34.3126 107.441 34.7514 108.156C35.1902 108.87 35.8771 109.509 36.8121 110.071L38.828 111.283L44.5633 101.744ZM36.0807 92.3239L22.3502 103.1L15.0887 93.8484L17.4821 91.9699L22.4652 98.3189L25.7369 95.7511L21.1275 89.878L23.5209 87.9995L28.1304 93.8725L31.4088 91.2994L26.4047 84.9236L28.7982 83.0451L36.0807 92.3239ZM28.4208 81.6894L11.7532 86.8713L9.70874 80.2955C9.31739 79.0367 9.20856 77.8924 9.38225 76.8626C9.54883 75.8291 9.96922 74.9516 10.6434 74.2303C11.3105 73.5052 12.1948 72.9715 13.2962 72.6291C14.403 72.285 15.4294 72.2277 16.3754 72.4571C17.316 72.6883 18.1388 73.1912 18.8437 73.9657C19.5469 74.7348 20.0975 75.7595 20.4956 77.04L21.8645 81.4429L19.0323 82.3234L17.8406 78.4902C17.6314 77.8174 17.3654 77.2873 17.0426 76.8997C16.7198 76.5122 16.3402 76.2672 15.9038 76.1649C15.4657 76.0572 14.9727 76.0885 14.4247 76.2588C13.8712 76.4309 13.4392 76.6872 13.1286 77.0277C12.8163 77.3628 12.6324 77.7859 12.5771 78.297C12.5147 78.8043 12.5889 79.397 12.7998 80.0752L13.5386 82.4517L27.3252 78.1654L28.4208 81.6894ZM18.0373 75.0464L24.3344 68.5458L25.5439 72.436L19.2189 78.8471L18.0373 75.0464Z" fill="#FF0000"/>
</svg>

